<svg width="75" height="24" viewBox="0 0 75 24" fill="none" xmlns="http://www.w3.org/2000/svg">
<g clip-path="url(#clip0_1_3744)">
<mask id="mask0_1_3744" style="mask-type:alpha" maskUnits="userSpaceOnUse" x="0" y="0" width="75" height="24">
<path fill-rule="evenodd" clip-rule="evenodd" d="M10.701 0.0643412C6.1477 0.407455 2.14972 3.60669 0.655103 8.1031C0.0888758 9.80661 -0.107207 11.4967 0.0655562 13.1842C0.590649 18.3118 4.07999 22.4681 8.87918 23.6824C10.1443 24.0026 11.7924 24.0888 13.1167 23.9041C16.9174 23.374 20.2099 20.9307 21.9275 17.3659C22.8404 15.4709 23.1754 13.8535 23.1158 11.6289C23.0879 10.5894 23.0525 10.2215 22.9194 9.58764C22.251 6.40591 20.4661 3.70696 17.8818 1.9703C15.7486 0.536733 13.2461 -0.127473 10.701 0.0643412ZM67.0471 3.835C65.5907 4.00325 64.4585 4.50329 63.6185 5.34929C62.8739 6.09935 62.4696 6.98506 62.3514 8.1255C62.1751 9.82764 62.733 11.2699 63.9101 12.1547C64.7597 12.7934 65.6482 13.1109 67.6241 13.4817C69.6693 13.8656 70.3072 14.1476 70.6123 14.803C70.9186 15.4607 70.7579 16.371 70.2614 16.7908C69.4112 17.5097 67.6954 17.5444 66.538 16.8661C66.0017 16.5518 65.4947 15.8213 65.3181 15.1083L65.2529 14.8454H63.5852H61.9175V15.0874C61.9175 15.7507 62.2887 16.9671 62.6955 17.6367C63.8047 19.4628 66.2621 20.4481 69.0136 20.1702C71.6391 19.9049 73.3516 18.7194 73.9804 16.732C74.171 16.1297 74.2197 14.8849 74.0798 14.1951C73.9562 13.5858 73.5855 12.8189 73.2072 12.3896C73.0512 12.2127 72.7199 11.9317 72.4709 11.7652C71.6158 11.1933 70.7018 10.8968 68.8144 10.5793C66.7887 10.2385 66.1935 9.9644 65.8547 9.21651C65.5986 8.65077 65.735 7.74545 66.1422 7.30931C66.5082 6.91733 67.177 6.68234 67.9299 6.68117C69.3396 6.679 70.3083 7.31395 70.7112 8.50436L70.8161 8.81445L72.5224 8.8309L74.2286 8.84735L74.1882 8.58348C74.1148 8.10261 73.8579 7.30047 73.6325 6.84818C72.8644 5.30686 71.4402 4.28296 69.5714 3.92847C68.9539 3.81131 67.6652 3.76362 67.0471 3.835ZM10.2062 4.13803C8.85883 4.43587 7.85052 5.0089 6.88125 6.02766C5.30108 7.68849 4.77123 9.9529 5.38972 12.4021C5.53601 12.9814 5.9729 14.129 6.09277 14.249C6.14523 14.3014 6.40007 14.3451 6.78382 14.3675C7.49164 14.4089 8.33813 14.6354 8.84535 14.9192C10.1971 15.6754 10.8209 16.9274 11.0892 19.4227L11.1657 20.134H11.5972H12.0288L12.1065 19.3918C12.3158 17.394 12.69 16.3866 13.5364 15.5429C14.2064 14.8749 15.2804 14.4426 16.4388 14.3745C17.2728 14.3255 17.2232 14.3548 17.4459 13.7783C17.7524 12.9852 17.9303 12.1899 18.0019 11.2924C18.182 9.03731 17.5303 7.17651 16.0718 5.7808C15.2517 4.99609 14.4936 4.55791 13.3917 4.23199C12.9064 4.08842 12.7004 4.06442 11.7835 4.04457C10.9213 4.02589 10.6372 4.04271 10.2062 4.13803ZM30.9683 4.11941C29.0187 4.47162 27.4617 5.59022 26.6285 7.23712C26.2654 7.95484 26.0357 8.85682 25.9471 9.91238L25.9069 10.3918H27.5751H29.2433L29.2879 9.97529C29.4659 8.31372 30.4292 7.2537 31.9186 7.08057C32.5864 7.00294 33.4479 7.25704 33.9188 7.67049C34.5011 8.18178 34.7901 8.89176 34.7496 9.71135C34.6942 10.832 34.1096 11.5144 32.5175 12.3172C31.2875 12.9374 28.4599 14.1542 26.8917 14.7383L26.0412 15.0551V17.3938V19.7326L32.2732 19.7168L38.5051 19.701L38.5217 18.1392L38.5382 16.5773L34.2845 16.5741L30.0309 16.5707L30.7732 16.3062C32.3652 15.7386 34.531 14.749 35.3872 14.1978C36.7719 13.3063 37.5905 12.3069 37.9747 11.0386C38.2439 10.1497 38.2459 8.78197 37.9796 7.81102C37.4457 5.86504 35.8443 4.49451 33.6568 4.11143C33.0077 3.99774 31.6189 4.00189 30.9683 4.11941ZM46.1752 4.08966C42.1495 4.67457 39.5496 8.03921 39.7284 12.433C39.8146 14.5508 40.5025 16.2759 41.8085 17.6495C42.9409 18.8404 44.4253 19.6131 46.1135 19.8902C47.0892 20.0503 48.5521 19.9866 49.4986 19.7426C51.5543 19.2127 53.1395 17.9412 53.9988 16.1329C54.4965 15.0855 54.6804 14.1445 54.6804 12.645V11.6907H50.8763H47.0721V13.0206V14.3505H49.1786H51.2851L51.0504 14.799C50.9042 15.0784 50.6609 15.4028 50.4051 15.6595C49.0108 17.0589 46.3206 17.1562 44.7098 15.8655C43.4837 14.883 42.8494 12.9625 43.1351 11.0982C43.468 8.92647 44.7306 7.54176 46.6585 7.23416C47.2286 7.14317 48.1675 7.18888 48.707 7.33381C49.7096 7.60319 50.5646 8.28818 50.9991 9.17012L51.2353 9.6495H52.9578C54.2952 9.6495 54.6801 9.63218 54.6793 9.57218C54.6787 9.52968 54.6273 9.30001 54.5648 9.06187C53.8656 6.39205 51.7791 4.58896 48.8369 4.11174C48.2297 4.01321 46.7837 4.00121 46.1752 4.08966ZM56.7835 12.0309V19.732H58.3917H60V12.0309V4.32991H58.3917H56.7835V12.0309Z" fill="black"/>
</mask>
<g mask="url(#mask0_1_3744)">
<rect width="23.1959" height="24.7423" fill="#24B349"/>
<rect x="23.1959" width="51.0309" height="24.7423" fill="#3E3D3F"/>
</g>
</g>
<defs>
<clipPath id="clip0_1_3744">
<rect width="74.2268" height="24" fill="white"/>
</clipPath>
</defs>
</svg>
