<svg width="40" height="40" viewBox="0 0 40 40" fill="none" xmlns="http://www.w3.org/2000/svg">
<path fill-rule="evenodd" clip-rule="evenodd" d="M14.8246 4.20948C10.1521 5.81657 7.04547 8.6474 4.83464 13.3136C3.66547 15.7803 3.54297 16.4203 3.55631 19.9999C3.56797 23.2337 3.75006 24.3611 4.55089 26.1595L5.53131 28.3607L4.44464 32.387C3.84672 34.6016 3.41881 36.4741 3.49297 36.5482C3.56714 36.6224 5.53214 36.222 7.86006 35.6586L12.0917 34.6337L14.0667 35.5357C15.6421 36.2553 16.8421 36.4399 20.0001 36.4482C23.5746 36.4574 24.223 36.3328 26.6863 35.1653C31.3942 32.9345 34.2088 29.8228 35.8055 25.0828C40.0771 12.4028 27.4701 -0.139267 14.8246 4.20948ZM12.5305 13.5978C10.778 15.8253 11.7901 19.2191 15.3367 23.0107C17.6013 25.4316 19.8676 26.8395 22.5959 27.5199C24.8638 28.0853 26.3409 27.8257 27.5105 26.6561C28.9801 25.1866 28.5863 24.0107 26.2588 22.9207L24.1838 21.9491L23.3117 23.0578C22.8321 23.6674 22.2042 24.1666 21.9163 24.1666C20.968 24.1666 17.7263 21.7266 16.7571 20.2828C15.8292 18.9011 15.8238 18.8341 16.5405 17.5849C17.2542 16.342 17.2488 16.2482 16.3517 14.402C15.2467 12.1274 13.9084 11.8457 12.5305 13.5978Z" fill="#43D854"/>
</svg>
