<svg width="40" height="40" viewBox="0 0 40 40" fill="none" xmlns="http://www.w3.org/2000/svg">
<path fill-rule="evenodd" clip-rule="evenodd" d="M14.7917 4.1825C9.98711 5.72416 5.67378 10.0883 4.15961 14.9396C0.137531 27.8279 12.1721 39.8625 25.0604 35.8404C29.9854 34.3029 34.3029 29.9854 35.8404 25.0604C39.875 12.1321 27.6884 0.0441644 14.7917 4.1825ZM10.22 14.5642C9.59795 15.5708 12.0217 21.035 14.1817 23.4954C15.73 25.2587 18.72 26.7729 20.2963 26.5917C21.3646 26.4692 21.4688 26.2987 21.5854 24.4792C21.6663 23.2154 21.905 22.5 22.2454 22.5C22.5388 22.5 23.6663 23.4375 24.7513 24.5833C26.3592 26.2817 26.9834 26.6667 28.1288 26.6667C29.9721 26.6667 30.2988 26.0292 29.2159 24.5437C28.7304 23.8779 27.9379 22.7908 27.4546 22.1283L26.5763 20.9229L28.3242 17.9804C29.2859 16.3621 29.9513 14.8417 29.8034 14.6021C29.6554 14.3625 28.8804 14.1667 28.0809 14.1667C26.8863 14.1667 26.5017 14.3967 25.9179 15.4583C24.5713 17.9096 22.9096 20 22.3079 20C21.8534 20 21.6746 19.3083 21.5817 17.1875L21.4584 14.375L19.0092 14.2483C16.7779 14.1333 16.5909 14.1887 16.9029 14.8733C17.0917 15.2867 17.32 16.8183 17.4104 18.2762C17.6309 21.8208 16.9421 21.5792 14.8663 17.3842C13.3521 14.3233 13.2063 14.1667 11.87 14.1667C11.0979 14.1667 10.3554 14.3454 10.22 14.5642Z" fill="#597DA3"/>
</svg>
