<svg width="40" height="40" viewBox="0 0 40 40" fill="none" xmlns="http://www.w3.org/2000/svg">
<path fill-rule="evenodd" clip-rule="evenodd" d="M28.7461 2.38649C27.3986 2.63055 25.9557 3.28649 24.9118 4.12945C22.3341 6.21117 19.5707 8.05352 18.3688 8.49164C18.0975 8.59047 17.8135 8.61703 17.2265 8.59836C14.9439 8.5257 14.3639 8.55391 13.8092 8.76445C12.7238 9.17672 11.7843 9.92258 11.1164 10.9024C10.9421 11.158 10.5446 11.6836 10.2329 12.0703C9.63714 12.8097 9.37925 13.2688 9.37714 13.5938C9.37331 14.1735 9.74199 14.7766 10.2231 14.9776C10.7171 15.1841 11.688 15.2267 13.4823 15.1209C15.4582 15.0045 15.7715 14.9214 16.5267 14.3141C16.7827 14.1083 17.1679 13.6924 17.3828 13.3899C17.6919 12.9548 17.8468 12.8105 18.125 12.698C18.3183 12.6199 19.25 12.1769 20.1953 11.7134C22.0008 10.8283 22.9575 10.2326 24.8046 8.84359C27.169 7.06563 29.7537 6.25633 31.73 6.67524C32.6635 6.87313 33.0639 7.19039 33.4002 7.99875C33.5805 8.43227 33.5637 9.28273 33.3659 9.72984C33.126 10.2723 32.9335 10.5034 32.2397 11.0816C30.6764 12.3845 30.5552 12.4245 28.0468 12.467C24.855 12.5211 23.1505 12.7318 21.478 13.2791C19.0841 14.0623 17.1287 15.3423 15.0671 17.4755C13.1711 19.4373 12.5943 19.992 11.9724 20.4515C11.1349 21.0702 10.1106 21.6441 8.98761 22.1238C6.39894 23.2295 4.31972 24.7295 3.06207 26.3986C2.17394 27.5772 1.46293 29.2265 1.20488 30.7062C0.721363 33.4792 1.95418 36.032 4.33589 37.1897C5.16535 37.5929 5.798 37.7318 6.81128 37.7332C8.08316 37.735 9.37082 37.3965 10.5048 36.7623C11.0121 36.4787 11.116 36.3283 11.0073 36.0346C10.9278 35.8195 10.8196 35.7987 9.53121 35.7507C7.12753 35.6612 5.72902 34.8769 5.20753 33.3259C4.93824 32.5249 5.09675 31.337 5.56386 30.6552C5.84996 30.2377 6.91121 29.7813 8.00667 29.6045C8.53566 29.5191 10.7407 29.5429 10.8328 29.6348C10.8478 29.6499 10.8214 29.8525 10.774 30.085C10.7267 30.3176 10.6748 31.1128 10.6588 31.8523C10.6292 33.2204 10.592 33.4145 10.2628 33.9205C10.1504 34.0932 10.1425 34.1656 10.2178 34.3307C10.2928 34.4954 10.3628 34.5312 10.6096 34.5312C10.973 34.5312 11.9264 34.2169 12.394 33.9428C12.6731 33.7793 12.7343 33.7021 12.7343 33.5141C12.7343 33.358 12.6742 33.2455 12.5458 33.1613C12.3682 33.045 12.3301 33.0515 11.8918 33.2727L11.4263 33.5077L11.4543 32.8281C11.4696 32.4543 11.497 31.7441 11.515 31.25C11.533 30.7559 11.5882 30.1715 11.6375 29.9514L11.7274 29.5513L12.3235 29.4552C12.6514 29.4023 12.957 29.3446 13.0028 29.327C13.058 29.3059 13.089 29.5771 13.0953 30.1359C13.1027 30.7986 13.1482 31.1216 13.3101 31.6613C13.5482 32.4548 13.5635 32.8016 13.3901 33.4653C13.2018 34.1863 13.27 35.4302 13.5336 36.0765C13.8092 36.7523 14.2247 37.4249 14.4237 37.5173C14.7033 37.647 14.8777 37.4713 15.1812 36.7544C15.5816 35.8084 16.1236 34.9238 16.7187 34.245C17.7372 33.0832 17.9713 32.774 18.2716 32.1934C18.6819 31.4 18.9725 30.4426 19.0828 29.5205L19.1737 28.7603L19.6845 28.6723C21.0785 28.4324 22.8857 27.8626 24.5185 27.1482C25.6921 26.6348 25.8874 26.4627 25.6712 26.1328C25.6008 26.0254 25.4717 25.9375 25.3843 25.9375C25.2968 25.9375 24.7791 26.1351 24.2337 26.3766C23.01 26.9184 21.4796 27.4352 20.3317 27.6944C19.0918 27.9743 19.1725 28.0014 19.116 27.2852C19.0899 26.9522 19.047 26.5742 19.0209 26.4453L18.9734 26.2109L19.7479 25.95C20.7975 25.5964 21.7652 25.126 22.7825 24.475C24.3594 23.4659 25.2882 23.0288 26.3671 22.788C26.981 22.6509 27.8906 22.5372 27.8906 22.5973C27.8906 22.6191 27.8034 22.834 27.6968 23.0749C27.5903 23.3159 27.4132 23.8388 27.3032 24.237C27.005 25.3181 26.8162 25.7392 26.244 26.6006C25.4294 27.827 25.1098 28.5866 24.7975 30.0389C24.7206 30.3965 24.5335 30.91 24.3599 31.2395C24.0732 31.7839 24.0633 31.8256 24.1785 32.0014C24.3461 32.2573 24.5907 32.2418 25.601 31.9113C28.7285 30.888 31.3022 28.8638 32.5 26.4854C33.0906 25.3127 33.4023 24.1564 33.4885 22.8182L33.541 22.0037L34.1338 21.2709L34.7265 20.538L34.7778 21.1089C34.8395 21.7945 34.7368 23.1814 34.5615 24.0312C34.3901 24.862 34.0447 25.82 33.5891 26.728C33.0876 27.7272 32.638 28.818 32.3444 29.7473C32.2122 30.1656 32.0867 30.5573 32.0653 30.6179C32.0132 30.7658 31.6003 30.3749 31.4026 29.9905C31.2456 29.6854 31.0672 29.597 30.8047 29.6941C30.544 29.7906 30.5147 30.0358 30.7157 30.4381C30.9487 30.9048 31.7092 31.608 32.1107 31.7284C32.5211 31.8513 32.6761 31.7145 32.8083 31.1122C33.0076 30.2048 33.5463 28.7534 34.1781 27.4219C35.1819 25.3063 35.5221 24.0703 35.6032 22.2452C35.6298 21.6467 35.6089 20.9221 35.5507 20.4323L35.4541 19.6163L36.3296 18.3042C37.3206 16.8191 38.1227 15.2523 38.3542 14.3498C38.4935 13.806 38.5639 13.4024 38.833 11.6016C38.9403 10.8838 38.9188 9.41711 38.7892 8.61867C38.244 5.25672 36.0402 3.13125 32.3641 2.42188C31.4021 2.23625 29.6693 2.2193 28.7461 2.38649ZM29.6875 3.09055C29.58 3.10899 29.246 3.16399 28.9453 3.21274C27.544 3.43992 26.4196 3.98734 24.9156 5.17453C22.1426 7.36344 19.6084 8.99016 18.4428 9.32953C17.9413 9.47563 17.0864 9.48836 16.1902 9.36313C14.9574 9.19086 13.7245 9.52914 12.7462 10.308C12.5164 10.491 12.1121 10.9404 11.8478 11.3067C11.5835 11.673 11.1124 12.2935 10.801 12.6855C10.3372 13.2696 10.2349 13.4489 10.2346 13.6778C10.2343 14.0388 10.5201 14.3249 10.8789 14.3225C11.0185 14.3216 12.0117 14.2948 13.0859 14.263C15.0258 14.2057 15.0422 14.2038 15.516 13.9784C16.0412 13.7284 16.5627 13.2238 16.9124 12.6271C17.1071 12.2948 17.1354 12.1648 17.1445 11.5621C17.1557 10.8218 17.2385 10.625 17.539 10.625C17.8071 10.625 17.9257 10.8333 17.9687 11.3793L18.0078 11.8757L19.8046 10.9846C22.3862 9.70438 24.1812 8.46235 25.826 6.81813C27.1582 5.48641 28.3714 4.72945 29.816 4.32844C30.481 4.14383 31.9415 4.09922 32.6185 4.24274C34.6824 4.68039 36.685 6.13906 37.6671 7.92031C37.9325 8.40141 37.9387 8.37664 37.7265 7.68399C37.4221 6.69 36.985 5.9607 36.2545 5.22734C35.2534 4.2225 34.2311 3.68883 32.5884 3.31352C31.7968 3.13266 30.1703 3.00766 29.6875 3.09055ZM30.6118 4.99664C29.7051 5.1625 28.405 5.70727 27.8125 6.16961C27.6331 6.30953 27.665 6.30688 28.2032 6.13688C29.4379 5.7468 31.1117 5.6818 32.2265 5.98055C33.8629 6.41914 35.0157 7.61281 35.4303 9.29805C35.6007 9.99055 35.6692 11.9677 35.5533 12.8516C35.2935 14.8343 34.4728 16.8634 33.3627 18.2677L33.0446 18.6701L33.1618 19.1592C33.2262 19.4283 33.3234 19.9062 33.3778 20.2213L33.4765 20.7941L34.1796 19.8847C35.2349 18.5199 36.43 16.7077 36.9114 15.7422C38.9128 11.7289 37.6851 7.4368 34.0094 5.59688C32.9657 5.07438 31.5519 4.82469 30.6118 4.99664ZM34.3464 9.20883C34.2076 10.2226 33.8082 10.8439 32.7053 11.7623C31.7853 12.5283 31.5157 12.914 31.2064 13.9063C30.8871 14.9306 30.8921 14.9219 30.6284 14.9219C30.4689 14.9219 30.3559 14.8634 30.2742 14.7388C30.1641 14.5707 30.1707 14.499 30.3532 13.869C30.4626 13.4914 30.538 13.1683 30.5207 13.151C30.5035 13.1337 30.3353 13.1551 30.147 13.1985C29.9587 13.2419 29.1682 13.2783 28.3903 13.2794C27.6125 13.2804 26.7552 13.3043 26.4853 13.3325L25.9946 13.3838L26.0367 14.2114C26.0599 14.6666 26.1418 15.3963 26.2187 15.833C26.3371 16.5052 26.3423 16.6466 26.2523 16.7549C26.0907 16.9498 25.6864 16.8816 25.5741 16.6406C25.4301 16.3316 25.2407 15.0325 25.2169 14.1916L25.1953 13.4222L24.5703 13.4738C23.2985 13.5786 21.6428 14.005 20.5703 14.504L20.0919 14.7266L20.2464 15.3125C20.7661 17.284 21.646 19.0409 22.7235 20.2584C23.1447 20.7346 23.2055 20.9239 23.0022 21.1273C22.7691 21.3603 22.5344 21.2745 22.1096 20.8008C20.9724 19.5329 19.8881 17.3938 19.4563 15.5664C19.403 15.3409 19.3223 15.1563 19.2769 15.1563C19.1227 15.1563 17.6976 16.1583 17.0312 16.7353C16.5721 17.1329 16.3599 17.3717 16.3437 17.5092C16.2917 17.9502 17.0511 19.8987 17.5734 20.6641C17.7868 20.9769 17.7768 21.2185 17.5443 21.3709C17.3943 21.4692 17.3193 21.4768 17.1885 21.4068C16.8382 21.2194 16.0999 19.8245 15.7729 18.7323C15.6794 18.4198 15.5917 18.1509 15.5781 18.1347C15.5644 18.1186 15.3682 18.312 15.1421 18.5644C14.9159 18.8169 14.3974 19.367 13.9897 19.7869L13.2486 20.5502L13.5382 21.115C13.6974 21.4255 13.8956 21.7976 13.9786 21.9416C14.164 22.2634 14.096 22.507 13.7905 22.6161C13.5978 22.6848 13.5514 22.6652 13.3578 22.4334C13.2385 22.2905 13.0232 21.9328 12.8791 21.6385C12.735 21.3443 12.5961 21.1013 12.5705 21.0987C12.5449 21.0959 12.2285 21.292 11.8674 21.5343C11.2446 21.9523 9.96277 22.6245 9.23667 22.9139L8.903 23.0469L9.07128 23.3789C9.16378 23.5616 9.37542 23.8825 9.5416 24.0923C9.70777 24.302 9.84371 24.5216 9.84371 24.5805C9.84371 24.7291 9.55832 25 9.40191 25C9.21816 25 8.73566 24.4677 8.43433 23.9327C8.29308 23.6818 8.16925 23.4655 8.15917 23.452C8.09066 23.3602 6.20941 24.5074 5.53683 25.0511L5.25347 25.2802L5.40972 25.5894C5.49574 25.7594 5.6848 26.045 5.82988 26.2241C6.22394 26.7105 6.16214 27.1094 5.69269 27.1094C5.47183 27.1094 5.11769 26.7455 4.79957 26.1914C4.71941 26.0517 4.62972 25.9375 4.60035 25.9375C4.49761 25.9375 3.76019 26.7995 3.40207 27.3383C3.03589 27.8891 2.53683 28.8941 2.48777 29.1797C2.46753 29.2975 2.54371 29.3777 2.79707 29.5056C2.98199 29.5989 3.18418 29.7175 3.24628 29.7691C3.42253 29.9153 3.38293 30.2153 3.16886 30.3555C2.99191 30.4716 2.95253 30.4689 2.61207 30.3183C2.41058 30.2291 2.22066 30.1563 2.19003 30.1563C2.1373 30.1563 2.01855 30.768 1.91394 31.5784C1.88785 31.7804 1.90636 32.2374 1.95511 32.594C2.18668 34.288 3.16613 35.6763 4.64839 36.4116C5.78128 36.9737 6.88558 37.0759 8.28246 36.748L8.86714 36.6107L8.51558 36.5395C6.38144 36.1073 5.29363 35.428 4.65675 34.1295C4.07863 32.9509 4.0766 31.7534 4.65074 30.6203C5.43652 29.0697 6.8655 27.7277 8.43324 27.0681C9.53949 26.6026 10.1821 26.4953 12.8674 26.3275C13.6066 26.2813 14.3871 26.2227 14.6019 26.1973C14.983 26.1521 14.9953 26.1425 15.1134 25.7959C15.1799 25.6007 15.2343 25.3823 15.2343 25.3107C15.2343 25.138 15.4807 24.9219 15.6776 24.9219C15.7643 24.9219 15.899 24.9924 15.9771 25.0788C16.1131 25.2291 16.1134 25.2559 15.9837 25.7223C15.8003 26.3819 15.3822 27.1551 14.9338 27.6642C14.392 28.2792 14.25 28.5056 14.0688 29.0437C13.8727 29.6258 13.8542 30.4807 14.0243 31.0963C14.4096 32.4904 14.4156 32.5662 14.2182 33.5795C14.0168 34.614 14.0507 35.1791 14.3552 35.8694L14.5059 36.2109L14.8026 35.625C15.225 34.7909 15.6037 34.2588 16.4552 33.3031C17.0507 32.6347 17.2782 32.3072 17.5807 31.682C18.0289 30.7557 18.1685 30.253 18.2929 29.1191C18.4059 28.089 18.3007 26.8267 18.0057 25.6731C17.8242 24.9632 17.818 24.886 17.9293 24.7161C18.1655 24.3556 18.6157 24.5825 18.7151 25.1122C18.7767 25.4405 18.7944 25.4392 19.8687 25.0299C20.8109 24.671 21.6153 24.2559 22.54 23.6512C24.3737 22.4523 25.7844 21.9233 27.4916 21.7946L28.3984 21.7263L28.6292 21.4295C29.0309 20.913 29.7357 20.2344 29.8703 20.2344C30.0328 20.2344 30.3125 20.5073 30.3125 20.666C30.3125 20.7316 30.1086 21.0043 29.8594 21.2721C28.9306 22.2706 28.5382 22.9927 28.0764 24.5538C27.7613 25.6186 27.416 26.3638 26.902 27.0884C26.3439 27.875 25.9557 28.7773 25.6645 29.9648C25.5182 30.5613 25.4108 31.0619 25.4261 31.0771C25.4703 31.1215 26.4635 30.7104 27.2265 30.332C32.0095 27.9597 33.7131 23.6971 32.0649 18.2259C31.9068 17.7014 31.7987 17.2172 31.8246 17.1498C31.89 16.9792 32.1955 16.8772 32.3689 16.9681C32.4472 17.0092 32.5738 17.1896 32.6503 17.3691L32.7893 17.6953L33.1425 17.1484C34.091 15.6795 34.6035 14.1598 34.7624 12.3434C34.8548 11.2866 34.7613 9.94773 34.5464 9.25133L34.4038 8.78906L34.3464 9.20883ZM14.0048 10.8391C13.7297 10.9759 13.6333 11.1619 13.7108 11.4061C13.7856 11.6415 14.1208 11.6915 14.4484 11.5161C14.7656 11.3463 14.8549 11.038 14.6471 10.8302C14.4907 10.6738 14.3325 10.6759 14.0048 10.8391ZM30.1227 15.904C29.9514 16.0754 29.9696 16.4327 30.1585 16.6037C30.3683 16.7935 30.7099 16.6825 30.8123 16.3914C30.9653 15.9563 30.441 15.5857 30.1227 15.904ZM26.2656 17.9062C26.0046 18.1673 26.327 18.9062 26.7019 18.9062C27.1252 18.9062 27.2376 18.5316 26.9539 18.0664C26.8383 17.8767 26.7435 17.8125 26.5793 17.8125C26.4583 17.8125 26.3171 17.8547 26.2656 17.9062ZM14.375 23.125C14.1688 23.3312 14.1778 23.4819 14.4105 23.7145C14.6385 23.9424 14.8497 23.9592 15.0269 23.7634C15.2147 23.5559 15.1857 23.3158 14.9503 23.1307C14.693 22.9283 14.5728 22.9271 14.375 23.125ZM14.0234 27.0802C13.9375 27.0955 13.0761 27.1592 12.1093 27.2219C10.1185 27.3509 9.46464 27.4848 8.48074 27.9645C7.93652 28.2298 6.91886 28.898 6.97441 28.9536C6.98488 28.9641 7.2041 28.9195 7.46152 28.8545C7.80949 28.7668 8.46121 28.7318 9.99996 28.7184C11.5773 28.7047 12.2005 28.6703 12.6171 28.5741C13.3675 28.4007 13.427 28.3719 13.5587 28.1171C13.6222 27.9943 13.8323 27.6997 14.0255 27.4625C14.2187 27.2253 14.3324 27.036 14.2782 27.0419C14.224 27.0477 14.1093 27.065 14.0234 27.0802Z" fill="#F56200"/>
</svg>
