<svg width="40" height="40" viewBox="0 0 40 40" fill="none" xmlns="http://www.w3.org/2000/svg">
<path fill-rule="evenodd" clip-rule="evenodd" d="M18.5417 11.0755C10.7501 14.3805 4.14088 17.4013 3.85422 17.7884C3.22797 18.635 3.1863 19.78 3.7438 20.8213C3.96922 21.243 5.80963 22.2742 7.83338 23.1134L11.513 24.6384L12.6234 28.0484C14.5851 34.0721 15.6921 34.623 19.4251 31.4342L21.648 29.535L24.5576 32.2675C26.7363 34.3138 27.7655 35 28.6551 35C30.0105 35 31.5521 33.7488 31.8771 32.3842C32.6784 29.0213 36.6667 8.40463 36.6667 7.62546C36.6667 6.30963 35.2384 4.99296 33.8542 5.03338C33.2238 5.05171 26.3334 7.77046 18.5417 11.0755ZM20.4484 14.0225C13.7051 16.855 8.11922 19.2421 8.03463 19.3267C7.95005 19.4113 9.11505 19.9746 10.6238 20.5784L13.3671 21.6767L20.6692 17.463C24.6855 15.1455 28.0905 13.3684 28.2359 13.5138C28.3817 13.6596 26.2259 16.0692 23.4455 18.8684C18.7359 23.61 18.3471 24.125 17.7663 26.3917C17.0684 29.1163 16.8175 29.1234 20.1313 26.3217L21.7209 24.978L25.0963 28.1142C26.953 29.8388 28.5163 31.2034 28.5701 31.1459C28.7967 30.905 32.9605 9.51129 32.8401 9.20629C32.7676 9.02213 27.1913 11.1896 20.4484 14.0225Z" fill="#0088CC"/>
</svg>
