<svg width="99" height="20" viewBox="0 0 99 20" fill="none" xmlns="http://www.w3.org/2000/svg">
<path d="M2.81034 15.1717C2.68328 15.2141 2.51387 15.2564 2.3021 15.2988C2.09034 15.3411 1.86445 15.3553 1.61034 15.3553C1.11622 15.3553 0.763277 15.2564 0.551513 15.087C0.339748 14.9035 0.226807 14.5929 0.226807 14.1694V1.84466C0.226807 1.57643 0.297395 1.36466 0.452689 1.20937C0.607983 1.05408 0.819748 0.941134 1.08798 0.856428C1.5821 0.687016 2.17504 0.559957 2.85269 0.503486C3.53034 0.447016 4.2221 0.404663 4.89975 0.404663C6.97504 0.404663 8.51387 0.828192 9.51622 1.66113C10.5327 2.49407 11.0268 3.66584 11.0268 5.17643C11.0268 6.22113 10.7586 7.12466 10.208 7.85878C9.65739 8.5929 8.88093 9.15761 7.85034 9.52466C8.23151 10.0047 8.61269 10.4705 8.96563 10.9505C9.33269 11.4164 9.67151 11.8682 10.0103 12.2917C10.335 12.7153 10.6315 13.0964 10.8997 13.4353C11.168 13.7741 11.3797 14.0564 11.535 14.2823C11.4503 14.6494 11.2809 14.9317 11.0127 15.1153C10.7445 15.3129 10.448 15.3976 10.1233 15.3976C9.7421 15.3976 9.44563 15.2988 9.21975 15.1294C8.99387 14.9458 8.76798 14.6917 8.55622 14.3811L5.47857 9.94819H2.81034V15.1717ZM5.09739 7.88702C6.12798 7.88702 6.94681 7.66113 7.55387 7.22349C8.16092 6.77172 8.4574 6.10819 8.4574 5.19055C8.4574 4.30113 8.14681 3.6376 7.53975 3.18584C6.93269 2.73408 6.02916 2.52231 4.82916 2.52231C4.4621 2.52231 4.09504 2.53643 3.7421 2.56466C3.38916 2.5929 3.06445 2.63525 2.7821 2.6776V7.88702H5.09739Z" fill="#FF8C00"/>
<path d="M15.3327 10.8941C15.5586 11.7977 15.9962 12.4753 16.6315 12.913C17.2809 13.3506 18.0997 13.5765 19.1021 13.5765C19.7656 13.5765 20.3868 13.4777 20.9374 13.2659C21.488 13.0541 21.9397 12.8424 22.2786 12.6024C22.7303 12.8565 22.9421 13.2094 22.9421 13.6753C22.9421 13.9435 22.8433 14.1977 22.6315 14.4235C22.4197 14.6494 22.1374 14.8471 21.7844 15.0165C21.4315 15.1859 21.008 15.313 20.5139 15.4118C20.0339 15.5106 19.5115 15.553 18.9468 15.553C18.0292 15.553 17.1821 15.4259 16.4339 15.1718C15.6715 14.9177 15.0221 14.5365 14.4856 14.0283C13.9492 13.52 13.5256 12.8847 13.2292 12.1365C12.9327 11.3883 12.7915 10.5271 12.7915 9.53884C12.7915 8.57884 12.9327 7.7459 13.215 7.0259C13.4974 6.3059 13.8927 5.69884 14.3868 5.20472C14.8809 4.72472 15.4597 4.34355 16.1233 4.08943C16.7868 3.83531 17.5068 3.70825 18.2692 3.70825C19.0315 3.70825 19.7233 3.83531 20.3586 4.07531C20.9939 4.31531 21.5303 4.66825 21.9821 5.1059C22.4339 5.54355 22.7868 6.0659 23.0268 6.67296C23.2668 7.28002 23.3939 7.94355 23.3939 8.64943C23.3939 9.04472 23.295 9.34119 23.1115 9.52472C22.9139 9.70825 22.6456 9.83531 22.2786 9.89178L15.3327 10.8941ZM18.2833 5.64237C17.408 5.64237 16.6739 5.93884 16.095 6.53178C15.5162 7.12472 15.2056 7.95766 15.1774 9.05884L21.0503 8.2259C20.9797 7.5059 20.7256 6.89884 20.2597 6.40472C19.808 5.89649 19.1444 5.64237 18.2833 5.64237Z" fill="#FF8C00"/>
<path d="M30.5797 15.553C30.0715 15.553 29.5915 15.4965 29.1538 15.3977C28.7021 15.2988 28.3209 15.1577 28.0103 15.0024V19.4918C27.8974 19.5341 27.7421 19.5765 27.5444 19.6188C27.3468 19.6612 27.1209 19.6753 26.8809 19.6753C26.415 19.6753 26.0762 19.5906 25.8503 19.4071C25.6244 19.2377 25.5115 18.9271 25.5115 18.5035V6.16472C25.5115 5.81178 25.5679 5.52943 25.7091 5.31766C25.8362 5.1059 26.0762 4.89413 26.4291 4.68237C26.8809 4.42825 27.4174 4.20237 28.0668 4.00472C28.7162 3.80708 29.4362 3.70825 30.255 3.70825C31.0879 3.70825 31.8503 3.82119 32.5703 4.06119C33.2903 4.28708 33.9115 4.64002 34.4338 5.12002C34.9562 5.60002 35.3797 6.20708 35.6762 6.94119C35.9727 7.67531 36.1279 8.56472 36.1279 9.58119C36.1279 10.5835 35.9868 11.4588 35.7044 12.193C35.4221 12.9271 35.0409 13.5483 34.5609 14.0565C34.0809 14.5647 33.4879 14.9318 32.8244 15.1718C32.1326 15.4259 31.3985 15.553 30.5797 15.553ZM30.1985 13.52C31.2291 13.52 32.0479 13.2094 32.655 12.5741C33.2621 11.9388 33.5585 10.9506 33.5585 9.58119C33.5585 8.87531 33.4738 8.28237 33.2903 7.78825C33.1209 7.29413 32.8809 6.89884 32.5844 6.58825C32.2879 6.27766 31.935 6.05178 31.5397 5.92472C31.1303 5.78355 30.7068 5.72708 30.2409 5.72708C29.7327 5.72708 29.295 5.78355 28.9421 5.9106C28.5891 6.02355 28.2644 6.16472 27.9962 6.33413V12.8988C28.2644 13.0965 28.5891 13.2518 28.9562 13.3647C29.3232 13.4635 29.7327 13.52 30.1985 13.52Z" fill="#FF8C00"/>
<path d="M49.1162 9.63766C49.1162 10.5412 48.975 11.36 48.7068 12.0941C48.4385 12.8283 48.0574 13.4494 47.5774 13.9577C47.0974 14.4659 46.5044 14.8612 45.7985 15.1435C45.0926 15.4259 44.3162 15.5671 43.455 15.5671C42.5938 15.5671 41.8174 15.4259 41.1115 15.1435C40.4056 14.8612 39.8126 14.4659 39.3326 13.9577C38.8526 13.4494 38.4715 12.8283 38.2032 12.0941C37.935 11.36 37.7938 10.5412 37.7938 9.63766C37.7938 8.73413 37.935 7.91531 38.2032 7.18119C38.4715 6.44708 38.8526 5.8259 39.3468 5.31766C39.8409 4.80943 40.4338 4.41413 41.1397 4.13178C41.8456 3.84943 42.6079 3.70825 43.455 3.70825C44.3021 3.70825 45.0644 3.84943 45.7703 4.13178C46.4762 4.41413 47.0691 4.80943 47.5632 5.33178C48.0574 5.85413 48.4385 6.47531 48.7068 7.19531C48.9891 7.91531 49.1162 8.72002 49.1162 9.63766ZM43.455 5.71296C42.495 5.71296 41.7468 6.05178 41.1821 6.74355C40.6315 7.42119 40.3491 8.39531 40.3491 9.63766C40.3491 10.88 40.6174 11.84 41.1679 12.5177C41.7044 13.1953 42.4668 13.5341 43.455 13.5341C44.4432 13.5341 45.2056 13.1953 45.7421 12.5177C46.2785 11.84 46.5609 10.88 46.5609 9.63766C46.5609 8.40943 46.2926 7.44943 45.7421 6.75766C45.1915 6.0659 44.4291 5.71296 43.455 5.71296Z" fill="#FF8C00"/>
<path d="M64.6315 6.20707C64.2362 5.88236 63.7139 5.71295 63.0503 5.71295C62.5986 5.71295 62.175 5.79766 61.7797 5.96707C61.3703 6.13648 61.0033 6.36236 60.6644 6.64472C60.6927 6.77178 60.7209 6.91295 60.735 7.05413C60.7492 7.19531 60.7633 7.33648 60.7633 7.47766V15.1718C60.6503 15.2141 60.495 15.2565 60.2833 15.2988C60.0715 15.3412 59.8597 15.3553 59.6339 15.3553C59.168 15.3553 58.8292 15.2706 58.6033 15.0871C58.3774 14.9177 58.2644 14.6212 58.2644 14.1977V7.73178C58.2644 7.02589 58.0668 6.51766 57.6715 6.19295C57.2762 5.86825 56.7397 5.69883 56.0762 5.69883C55.6244 5.69883 55.215 5.76942 54.8056 5.9106C54.4103 6.05178 54.0715 6.20707 53.8033 6.3906V15.1577C53.6903 15.2 53.535 15.2424 53.3374 15.2847C53.1397 15.3271 52.9139 15.3412 52.6739 15.3412C52.208 15.3412 51.8692 15.2565 51.6433 15.073C51.4174 14.9035 51.3044 14.6071 51.3044 14.1835V6.30589C51.3044 5.93883 51.375 5.64236 51.5162 5.41648C51.6574 5.1906 51.8974 4.96472 52.2362 4.75295C52.7021 4.45648 53.2809 4.20236 53.9727 3.9906C54.6786 3.77883 55.3844 3.68001 56.1044 3.68001C56.8527 3.68001 57.5303 3.77883 58.1233 3.9906C58.7162 4.20236 59.2103 4.49883 59.5915 4.89413C60.0433 4.54119 60.5656 4.25883 61.1727 4.01883C61.7797 3.79295 62.4997 3.66589 63.3044 3.66589C63.9256 3.66589 64.5044 3.73648 65.0409 3.89178C65.5774 4.04707 66.0433 4.28707 66.4386 4.61178C66.8339 4.93648 67.1303 5.34589 67.3562 5.84001C67.5821 6.33413 67.695 6.92707 67.695 7.60472V15.1294C67.568 15.1718 67.3986 15.2141 67.2009 15.2565C67.0033 15.2988 66.7774 15.313 66.5374 15.313C66.0715 15.313 65.7327 15.2282 65.5068 15.0447C65.2809 14.8753 65.168 14.5788 65.168 14.1553V7.68942C65.2103 7.04001 65.0127 6.53178 64.6315 6.20707Z" fill="#FF8C00"/>
<path d="M72.4527 10.8941C72.6786 11.7977 73.1162 12.4753 73.7515 12.913C74.4009 13.3506 75.2197 13.5765 76.2221 13.5765C76.8856 13.5765 77.5068 13.4777 78.0574 13.2659C78.608 13.0541 79.0597 12.8424 79.3986 12.6024C79.8503 12.8565 80.0621 13.2094 80.0621 13.6753C80.0621 13.9435 79.9633 14.1977 79.7515 14.4235C79.5397 14.6494 79.2574 14.8471 78.9044 15.0165C78.5515 15.1859 78.128 15.313 77.6338 15.4118C77.1538 15.5106 76.6315 15.553 76.0668 15.553C75.1491 15.553 74.3021 15.4259 73.5539 15.1718C72.7915 14.9177 72.1421 14.5365 71.6056 14.0283C71.0691 13.52 70.6456 12.8847 70.3491 12.1365C70.0527 11.3883 69.9115 10.5271 69.9115 9.53884C69.9115 8.57884 70.0527 7.7459 70.335 7.0259C70.6174 6.3059 71.0127 5.69884 71.5068 5.20472C72.0009 4.72472 72.5797 4.34355 73.2433 4.08943C73.9068 3.83531 74.6268 3.70825 75.3891 3.70825C76.1515 3.70825 76.8433 3.83531 77.4786 4.07531C78.1139 4.31531 78.6503 4.66825 79.1021 5.1059C79.5539 5.54355 79.9068 6.0659 80.1468 6.67296C80.3868 7.28002 80.5139 7.94355 80.5139 8.64943C80.5139 9.04472 80.415 9.34119 80.2315 9.52472C80.0339 9.70825 79.7656 9.83531 79.3986 9.89178L72.4527 10.8941ZM75.4174 5.64237C74.5421 5.64237 73.808 5.93884 73.2291 6.53178C72.6503 7.12472 72.3397 7.95766 72.3115 9.05884L78.1844 8.2259C78.1139 7.5059 77.8597 6.89884 77.3938 6.40472C76.9421 5.89649 76.2786 5.64237 75.4174 5.64237Z" fill="#FF8C00"/>
<path d="M85.5963 13.1671C85.9351 13.4071 86.401 13.52 87.008 13.52C87.2763 13.52 87.5586 13.4777 87.8692 13.4071C88.1657 13.3224 88.4339 13.2377 88.6598 13.1247C88.7727 13.2518 88.8716 13.3929 88.9563 13.5482C89.041 13.7035 89.0833 13.9012 89.0833 14.1271C89.0833 14.5365 88.8716 14.8894 88.448 15.1577C88.0245 15.4259 87.3892 15.5671 86.528 15.5671C85.328 15.5671 84.3821 15.2988 83.6763 14.7624C82.9704 14.2259 82.6174 13.3506 82.6174 12.1224V0.969418C82.7304 0.941183 82.8857 0.89883 83.0974 0.856477C83.3092 0.814124 83.521 0.785889 83.761 0.785889C84.2268 0.785889 84.5657 0.870594 84.7774 1.05412C84.9892 1.22354 85.1021 1.52001 85.1021 1.94354V4.30118H88.801C88.8574 4.40001 88.928 4.52707 88.9845 4.71059C89.041 4.88001 89.0692 5.06354 89.0692 5.26118C89.0692 5.93883 88.7727 6.29177 88.1798 6.29177H85.1021V11.9812C85.1021 12.5177 85.2574 12.9271 85.5963 13.1671Z" fill="#FF8C00"/>
<path d="M93.4598 15.1717C93.3468 15.2141 93.1915 15.2564 92.9939 15.2988C92.7962 15.3411 92.5704 15.3552 92.3304 15.3552C91.8645 15.3552 91.5256 15.2705 91.2998 15.087C91.0739 14.9176 90.9609 14.6211 90.9609 14.1976V6.36228C90.9609 5.96699 91.0456 5.64228 91.2009 5.38817C91.3562 5.14817 91.6103 4.90817 91.9633 4.68228C92.4292 4.39993 93.008 4.15993 93.728 3.96228C94.448 3.76464 95.2386 3.67993 96.0856 3.67993C97.4833 3.67993 98.1892 4.07523 98.1892 4.87993C98.1892 5.07758 98.1609 5.24699 98.0903 5.4164C98.0198 5.58581 97.9492 5.72699 97.8786 5.85405C97.7233 5.82581 97.5256 5.79758 97.2856 5.75523C97.0456 5.72699 96.7915 5.71287 96.5233 5.71287C95.888 5.71287 95.3092 5.78346 94.7868 5.91052C94.2645 6.0517 93.8127 6.22111 93.4456 6.41876V15.1717H93.4598Z" fill="#FF8C00"/>
</svg>
