<svg width="66" height="14" viewBox="0 0 66 14" fill="none" xmlns="http://www.w3.org/2000/svg">
<path d="M1.83576 10.7811C1.75105 10.8093 1.63811 10.8376 1.49693 10.8658C1.35576 10.894 1.20517 10.9035 1.03576 10.9035C0.706344 10.9035 0.47105 10.8376 0.329874 10.7246C0.188697 10.6023 0.113403 10.3952 0.113403 10.1129V1.8964C0.113403 1.71758 0.160462 1.5764 0.263992 1.47287C0.367521 1.36934 0.508697 1.29405 0.687521 1.23758C1.01693 1.12464 1.41223 1.03993 1.86399 1.00228C2.31576 0.964637 2.77693 0.936401 3.2287 0.936401C4.61223 0.936401 5.63811 1.21875 6.30634 1.77405C6.98399 2.32934 7.3134 3.11052 7.3134 4.11758C7.3134 4.81405 7.13458 5.4164 6.76752 5.90581C6.40046 6.39522 5.88281 6.7717 5.19576 7.0164C5.44987 7.3364 5.70399 7.64699 5.93929 7.96699C6.18399 8.27758 6.40987 8.57875 6.63576 8.86111C6.85223 9.14346 7.04987 9.39758 7.2287 9.62346C7.40752 9.84934 7.5487 10.0376 7.65223 10.1882C7.59576 10.4329 7.48281 10.6211 7.30399 10.7435C7.12517 10.8752 6.92752 10.9317 6.71105 10.9317C6.45693 10.9317 6.25929 10.8658 6.1087 10.7529C5.95811 10.6305 5.80752 10.4611 5.66634 10.254L3.61458 7.29875H1.83576V10.7811ZM3.36046 5.92464C4.04752 5.92464 4.5934 5.77405 4.99811 5.48228C5.40281 5.18111 5.60046 4.73875 5.60046 4.12699C5.60046 3.53405 5.3934 3.0917 4.9887 2.79052C4.58399 2.48934 3.98164 2.34817 3.18164 2.34817C2.93693 2.34817 2.69223 2.35758 2.45693 2.3764C2.22164 2.39522 2.00517 2.42346 1.81693 2.4517V5.92464H3.36046Z" fill="#FF8C00"/>
<path d="M10.1845 7.9295C10.3351 8.53186 10.6268 8.98362 11.0504 9.27539C11.4833 9.56715 12.0292 9.71774 12.6974 9.71774C13.1398 9.71774 13.5539 9.65186 13.9209 9.51068C14.288 9.3695 14.5892 9.22833 14.8151 9.06833C15.1162 9.23774 15.2574 9.47303 15.2574 9.78362C15.2574 9.96245 15.1915 10.1319 15.0504 10.2824C14.9092 10.433 14.7209 10.5648 14.4857 10.6777C14.2504 10.7907 13.968 10.8754 13.6386 10.9413C13.3186 11.0072 12.9704 11.0354 12.5939 11.0354C11.9821 11.0354 11.4174 10.9507 10.9186 10.7813C10.4104 10.6119 9.97742 10.3577 9.61977 10.0189C9.26212 9.68009 8.97977 9.25656 8.78212 8.75774C8.58447 8.25892 8.49036 7.6848 8.49036 7.02598C8.49036 6.38598 8.58447 5.83068 8.77271 5.35068C8.96094 4.87068 9.22447 4.46597 9.55389 4.13656C9.8833 3.81656 10.2692 3.56245 10.7115 3.39303C11.1539 3.22362 11.6339 3.13892 12.1421 3.13892C12.6504 3.13892 13.1115 3.22362 13.5351 3.38362C13.9586 3.54362 14.3162 3.77892 14.6174 4.07068C14.9186 4.36245 15.1539 4.71068 15.3139 5.11539C15.4739 5.52009 15.5586 5.96245 15.5586 6.43303C15.5586 6.69656 15.4927 6.89421 15.3704 7.01656C15.2386 7.13892 15.0598 7.22362 14.8151 7.26127L10.1845 7.9295ZM12.1515 4.42833C11.568 4.42833 11.0786 4.62597 10.6927 5.02127C10.3068 5.41656 10.0998 5.97186 10.0809 6.70598L13.9962 6.15068C13.9492 5.67068 13.7798 5.26597 13.4692 4.93656C13.168 4.59774 12.7257 4.42833 12.1515 4.42833Z" fill="#FF8C00"/>
<path d="M20.3487 11.0354C20.0098 11.0354 19.6898 10.9977 19.3981 10.9319C19.0969 10.866 18.8428 10.7719 18.6357 10.6683V13.6613C18.5604 13.6895 18.4569 13.7177 18.3251 13.746C18.1934 13.7742 18.0428 13.7836 17.8828 13.7836C17.5722 13.7836 17.3463 13.7272 17.1957 13.6048C17.0451 13.4919 16.9698 13.2848 16.9698 13.0024V4.77656C16.9698 4.54127 17.0075 4.35303 17.1016 4.21186C17.1863 4.07068 17.3463 3.9295 17.5816 3.78833C17.8828 3.61892 18.2404 3.46833 18.6734 3.33656C19.1063 3.2048 19.5863 3.13892 20.1322 3.13892C20.6875 3.13892 21.1957 3.21421 21.6757 3.37421C22.1557 3.5248 22.5698 3.76009 22.9181 4.08009C23.2663 4.40009 23.5487 4.8048 23.7463 5.29421C23.944 5.78362 24.0475 6.37656 24.0475 7.05421C24.0475 7.72245 23.9534 8.30597 23.7651 8.79539C23.5769 9.2848 23.3228 9.69892 23.0028 10.0377C22.6828 10.3766 22.2875 10.6213 21.8451 10.7813C21.384 10.9507 20.8946 11.0354 20.3487 11.0354ZM20.0946 9.68009C20.7816 9.68009 21.3275 9.47303 21.7322 9.0495C22.1369 8.62597 22.3346 7.96715 22.3346 7.05421C22.3346 6.58362 22.2781 6.18833 22.1557 5.85892C22.0428 5.5295 21.8828 5.26597 21.6851 5.05892C21.4875 4.85186 21.2522 4.70127 20.9887 4.61656C20.7157 4.52245 20.4334 4.4848 20.1228 4.4848C19.784 4.4848 19.4922 4.52245 19.2569 4.60715C19.0216 4.68245 18.8051 4.77656 18.6263 4.8895V9.26597C18.8051 9.39774 19.0216 9.50127 19.2663 9.57656C19.511 9.64245 19.784 9.68009 20.0946 9.68009Z" fill="#FF8C00"/>
<path d="M32.7066 7.09186C32.7066 7.69421 32.6124 8.24009 32.4336 8.7295C32.2548 9.21892 32.0007 9.63303 31.6807 9.97186C31.3607 10.3107 30.9654 10.5742 30.4948 10.7624C30.0242 10.9507 29.5066 11.0448 28.9324 11.0448C28.3583 11.0448 27.8407 10.9507 27.3701 10.7624C26.8995 10.5742 26.5042 10.3107 26.1842 9.97186C25.8642 9.63303 25.6101 9.21892 25.4313 8.7295C25.2524 8.24009 25.1583 7.69421 25.1583 7.09186C25.1583 6.4895 25.2524 5.94362 25.4313 5.45421C25.6101 4.9648 25.8642 4.55068 26.1936 4.21186C26.523 3.87303 26.9183 3.6095 27.3889 3.42127C27.8595 3.23303 28.3677 3.13892 28.9324 3.13892C29.4971 3.13892 30.0054 3.23303 30.476 3.42127C30.9466 3.6095 31.3419 3.87303 31.6713 4.22127C32.0007 4.5695 32.2548 4.98362 32.4336 5.46362C32.6219 5.94362 32.7066 6.48009 32.7066 7.09186ZM28.9324 4.47539C28.2924 4.47539 27.7936 4.70127 27.4171 5.16245C27.0501 5.61421 26.8619 6.26362 26.8619 7.09186C26.8619 7.92009 27.0407 8.56009 27.4077 9.01186C27.7654 9.46362 28.2736 9.6895 28.9324 9.6895C29.5913 9.6895 30.0995 9.46362 30.4571 9.01186C30.8148 8.56009 31.003 7.92009 31.003 7.09186C31.003 6.27303 30.8242 5.63303 30.4571 5.17186C30.0901 4.71068 29.5819 4.47539 28.9324 4.47539Z" fill="#FF8C00"/>
<path d="M43.0499 4.80471C42.7863 4.58824 42.4381 4.4753 41.9957 4.4753C41.6946 4.4753 41.4122 4.53177 41.1487 4.64471C40.8757 4.75765 40.631 4.90824 40.4052 5.09648C40.424 5.18118 40.4428 5.2753 40.4522 5.36942C40.4616 5.46354 40.471 5.55765 40.471 5.65177V10.7812C40.3957 10.8094 40.2922 10.8377 40.151 10.8659C40.0099 10.8941 39.8687 10.9035 39.7181 10.9035C39.4075 10.9035 39.1816 10.8471 39.031 10.7247C38.8805 10.6118 38.8052 10.4141 38.8052 10.1318V5.82118C38.8052 5.3506 38.6734 5.01177 38.4099 4.7953C38.1463 4.57883 37.7887 4.46589 37.3463 4.46589C37.0452 4.46589 36.7722 4.51295 36.4993 4.60707C36.2358 4.70118 36.0099 4.80471 35.831 4.92707V10.7718C35.7558 10.8 35.6522 10.8282 35.5205 10.8565C35.3887 10.8847 35.2381 10.8941 35.0781 10.8941C34.7675 10.8941 34.5416 10.8377 34.391 10.7153C34.2405 10.6024 34.1652 10.4047 34.1652 10.1224V4.8706C34.1652 4.62589 34.2122 4.42824 34.3063 4.27765C34.4005 4.12707 34.5605 3.97648 34.7863 3.8353C35.0969 3.63765 35.4828 3.46824 35.944 3.32707C36.4146 3.18589 36.8852 3.12001 37.3652 3.12001C37.864 3.12001 38.3158 3.18589 38.711 3.32707C39.1063 3.46824 39.4358 3.66589 39.6899 3.92942C39.991 3.69413 40.3393 3.50589 40.744 3.34589C41.1487 3.1953 41.6287 3.1106 42.1652 3.1106C42.5793 3.1106 42.9652 3.15765 43.3228 3.26118C43.6805 3.36471 43.991 3.52471 44.2546 3.74118C44.5181 3.95765 44.7157 4.2306 44.8663 4.56001C45.0169 4.88942 45.0922 5.28471 45.0922 5.73648V10.7529C45.0075 10.7812 44.8946 10.8094 44.7628 10.8377C44.631 10.8659 44.4805 10.8753 44.3205 10.8753C44.0099 10.8753 43.784 10.8188 43.6334 10.6965C43.4828 10.5835 43.4075 10.3859 43.4075 10.1035V5.79295C43.4357 5.36001 43.304 5.02118 43.0499 4.80471Z" fill="#FF8C00"/>
<path d="M48.2636 7.9295C48.4142 8.53186 48.7059 8.98362 49.1295 9.27539C49.5624 9.56715 50.1083 9.71774 50.7765 9.71774C51.2189 9.71774 51.633 9.65186 52 9.51068C52.3671 9.3695 52.6683 9.22833 52.8942 9.06833C53.1953 9.23774 53.3365 9.47303 53.3365 9.78362C53.3365 9.96245 53.2706 10.1319 53.1295 10.2824C52.9883 10.433 52.8 10.5648 52.5648 10.6777C52.3295 10.7907 52.0471 10.8754 51.7177 10.9413C51.3977 11.0072 51.0495 11.0354 50.673 11.0354C50.0612 11.0354 49.4965 10.9507 48.9977 10.7813C48.4895 10.6119 48.0565 10.3577 47.6989 10.0189C47.3412 9.68009 47.0589 9.25656 46.8612 8.75774C46.6636 8.25892 46.5695 7.6848 46.5695 7.02598C46.5695 6.38598 46.6636 5.83068 46.8518 5.35068C47.04 4.87068 47.3036 4.46597 47.633 4.13656C47.9624 3.81656 48.3483 3.56245 48.7906 3.39303C49.233 3.22362 49.713 3.13892 50.2212 3.13892C50.7295 3.13892 51.1906 3.22362 51.6142 3.38362C52.0377 3.54362 52.3953 3.77892 52.6965 4.07068C52.9977 4.36245 53.233 4.71068 53.393 5.11539C53.553 5.52009 53.6377 5.96245 53.6377 6.43303C53.6377 6.69656 53.5718 6.89421 53.4495 7.01656C53.3177 7.13892 53.1389 7.22362 52.8942 7.26127L48.2636 7.9295ZM50.24 4.42833C49.6565 4.42833 49.1671 4.62597 48.7812 5.02127C48.3953 5.41656 48.1883 5.97186 48.1695 6.70598L52.0848 6.15068C52.0377 5.67068 51.8683 5.26597 51.5577 4.93656C51.2565 4.59774 50.8142 4.42833 50.24 4.42833Z" fill="#FF8C00"/>
<path d="M57.026 9.44479C57.2519 9.60479 57.5625 9.68009 57.9672 9.68009C58.146 9.68009 58.3343 9.65185 58.5413 9.60479C58.739 9.54832 58.9178 9.49185 59.0684 9.41656C59.1437 9.50126 59.2096 9.59538 59.266 9.69891C59.3225 9.80244 59.3508 9.9342 59.3508 10.0848C59.3508 10.3577 59.2096 10.593 58.9272 10.7718C58.6449 10.9507 58.2213 11.0448 57.6472 11.0448C56.8472 11.0448 56.2166 10.866 55.746 10.5083C55.2755 10.1507 55.0402 9.56714 55.0402 8.74832V1.31303C55.1155 1.2942 55.219 1.26597 55.3602 1.23773C55.5013 1.2095 55.6425 1.19067 55.8025 1.19067C56.1131 1.19067 56.339 1.24714 56.4802 1.3695C56.6213 1.48244 56.6966 1.68009 56.6966 1.96244V3.5342H59.1625C59.2002 3.60009 59.2472 3.68479 59.2849 3.80714C59.3225 3.92009 59.3413 4.04244 59.3413 4.1742C59.3413 4.62597 59.1437 4.86126 58.7484 4.86126H56.6966V8.6542C56.6966 9.01185 56.8002 9.28479 57.026 9.44479Z" fill="#FF8C00"/>
<path d="M62.2685 10.7812C62.1933 10.8094 62.0897 10.8376 61.958 10.8659C61.8262 10.8941 61.6756 10.9035 61.5156 10.9035C61.205 10.9035 60.9791 10.8471 60.8285 10.7247C60.678 10.6118 60.6027 10.4141 60.6027 10.1318V4.90823C60.6027 4.6447 60.6591 4.42823 60.7627 4.25882C60.8662 4.09882 61.0356 3.93882 61.2709 3.78823C61.5815 3.59999 61.9674 3.44 62.4474 3.30823C62.9274 3.17647 63.4544 3.12 64.0191 3.12C64.9509 3.12 65.4215 3.38352 65.4215 3.92C65.4215 4.05176 65.4027 4.1647 65.3556 4.27764C65.3085 4.39058 65.2615 4.4847 65.2144 4.56941C65.1109 4.55058 64.9791 4.53176 64.8191 4.50352C64.6591 4.4847 64.4897 4.47529 64.3109 4.47529C63.8874 4.47529 63.5015 4.52235 63.1532 4.60705C62.805 4.70117 62.5038 4.81411 62.2591 4.94588V10.7812H62.2685Z" fill="#FF8C00"/>
</svg>
