<svg width="41" height="24" viewBox="0 0 41 24" fill="none" xmlns="http://www.w3.org/2000/svg">
<path fill-rule="evenodd" clip-rule="evenodd" d="M37.7149 4V18.1235H36.4649C35.7984 18.1235 35.2549 17.5885 35.2184 16.916L35.2149 4H32.7149V16.16C32.7149 18.2805 34.3939 20 36.4649 20H40.2149V4H37.7149ZM30.1974 7.84C30.1974 5.719 28.5184 4 26.4474 4H22.6974V20H25.1974V13H26.4474C27.1139 13 27.6574 13.537 27.6939 14.21L27.6974 20H30.1974V14.74C30.1993 14.1897 30.0838 13.6454 29.8586 13.1433C29.6334 12.6412 29.3036 12.193 28.8914 11.8285C29.3035 11.464 29.6332 11.0159 29.8584 10.5139C30.0836 10.0119 30.1992 9.46768 30.1974 8.9175V7.84ZM27.4509 10.575C27.3308 10.714 27.1822 10.8255 27.0152 10.9019C26.8481 10.9782 26.6666 11.0177 26.4829 11.0175H25.1974V6H26.4824C26.6897 5.99975 26.8939 6.04996 27.0775 6.14631C27.261 6.24265 27.4184 6.38224 27.5359 6.553C27.8324 6.9665 28.0299 7.688 28.0299 8.51C28.0299 9.363 27.8179 10.106 27.5029 10.511C27.486 10.5327 27.4686 10.554 27.4509 10.575ZM18.6974 17.5H21.1974V20H18.6974V17.5ZM13.6974 4H11.1974V20H17.1974V17.5H13.6974V4ZM5.10639 13.4175L3.26739 4H0.697388L3.82039 20H6.39189L9.51489 4H6.94439L5.10639 13.4175Z" fill="#F97D41"/>
</svg>
