<svg width="150" height="24" viewBox="0 0 150 24" fill="none" xmlns="http://www.w3.org/2000/svg">
<path d="M12.2268 1.5C7.25611 1.5 3.22681 5.5293 3.22681 10.5C3.22681 12.9845 4.23346 15.234 5.86156 16.8626C7.49011 18.492 11.3268 20.85 11.5518 23.325C11.5855 23.6961 11.8542 24 12.2268 24C12.5994 24 12.8681 23.6961 12.9018 23.325C13.1268 20.85 16.9635 18.492 18.5921 16.8626C20.2202 15.234 21.2268 12.9845 21.2268 10.5C21.2268 5.5293 17.1975 1.5 12.2268 1.5Z" fill="#FF4433"/>
<path d="M12.2268 13.6502C13.9665 13.6502 15.3768 12.2399 15.3768 10.5002C15.3768 8.76052 13.9665 7.35022 12.2268 7.35022C10.4871 7.35022 9.07678 8.76052 9.07678 10.5002C9.07678 12.2399 10.4871 13.6502 12.2268 13.6502Z" fill="white"/>
<path d="M36.3127 6.50781V18H34.1252V13.375H33.5784L31.2659 18H28.8752L31.4768 13.0156C29.9664 12.5833 29.2112 11.5781 29.2112 10C29.2112 9.4375 29.2893 8.94792 29.4456 8.53125C29.607 8.11458 29.8336 7.76302 30.1252 7.47656C30.4221 7.1849 30.7633 6.97135 31.1487 6.83594C31.5393 6.69531 31.8492 6.61458 32.0784 6.59375C32.3075 6.57292 32.9456 6.54427 33.9924 6.50781H36.3127ZM34.1252 11.2422V8.64844H33.5237C32.9768 8.64844 32.5836 8.68229 32.344 8.75C32.1044 8.8125 31.9091 8.95312 31.7581 9.17188C31.607 9.38542 31.5315 9.65104 31.5315 9.96875C31.5315 10.4427 31.6825 10.7734 31.9846 10.9609C32.2867 11.1484 32.7711 11.2422 33.4377 11.2422H34.1252ZM41.3284 12.5625H44.5002V9.5H46.6409V18H44.5002V14.4766H41.3284V18H39.1877V9.5H41.3284V12.5625ZM50.4065 18V19.4766H48.5081V16.1953H49.7893L52.719 9.5H54.094L57.0627 16.1953H58.3674V19.4766H56.3362V18H50.4065ZM54.7971 16.1953L53.4065 12.6172L51.969 16.1953H54.7971ZM68.7424 14.3672H61.8909C61.9898 14.9714 62.2528 15.4531 62.6799 15.8125C63.1122 16.1667 63.6617 16.3438 64.3284 16.3438C65.1252 16.3438 65.8101 16.0651 66.3831 15.5078L68.1799 16.3516C67.732 16.987 67.1956 17.4583 66.5706 17.7656C65.9456 18.0677 65.2034 18.2188 64.344 18.2188C63.0107 18.2188 61.9247 17.7995 61.0862 16.9609C60.2476 16.1172 59.8284 15.0625 59.8284 13.7969C59.8284 12.5 60.245 11.4245 61.0784 10.5703C61.9169 9.71094 62.9664 9.28125 64.2268 9.28125C65.5653 9.28125 66.6539 9.71094 67.4924 10.5703C68.331 11.4245 68.7502 12.5547 68.7502 13.9609L68.7424 14.3672ZM66.6018 12.6875C66.4612 12.2135 66.1825 11.8281 65.7659 11.5312C65.3544 11.2344 64.8752 11.0859 64.3284 11.0859C63.7346 11.0859 63.2138 11.2526 62.7659 11.5859C62.4846 11.7943 62.2242 12.1615 61.9846 12.6875H66.6018ZM70.9768 9.5H73.1096V12.6797L76.0471 9.5H78.6487L74.8596 13.6406L78.6956 18H75.8674L73.3362 15L73.1096 15.2656V18H70.9768V9.5ZM88.3909 11.2188L86.6174 12.1953C86.2841 11.8464 85.9534 11.6042 85.6252 11.4688C85.3023 11.3333 84.9221 11.2656 84.4846 11.2656C83.6877 11.2656 83.0419 11.5052 82.5471 11.9844C82.0575 12.4583 81.8127 13.0677 81.8127 13.8125C81.8127 14.5365 82.0497 15.1276 82.5237 15.5859C82.9976 16.0443 83.62 16.2734 84.3909 16.2734C85.344 16.2734 86.0862 15.9479 86.6174 15.2969L88.2971 16.4453C87.3857 17.6276 86.0992 18.2188 84.4377 18.2188C82.943 18.2188 81.7711 17.776 80.9221 16.8906C80.0784 16.0052 79.6565 14.9688 79.6565 13.7812C79.6565 12.9583 79.8622 12.2005 80.2737 11.5078C80.6851 10.8151 81.2581 10.2708 81.9924 9.875C82.732 9.47917 83.5575 9.28125 84.469 9.28125C85.3127 9.28125 86.0706 9.45052 86.7424 9.78906C87.4143 10.1224 87.9638 10.599 88.3909 11.2188ZM96.0549 6.50781H98.2659V10.4609L101.383 6.50781H104.016L100 11.6328L104.406 18H101.813L98.2659 12.8984V18H96.0549V6.50781ZM112.508 9.5H114.633V18H112.508V17.1016C112.091 17.4974 111.672 17.7839 111.25 17.9609C110.834 18.1328 110.38 18.2188 109.891 18.2188C108.792 18.2188 107.841 17.7943 107.039 16.9453C106.237 16.0911 105.836 15.0312 105.836 13.7656C105.836 12.4531 106.224 11.3776 107 10.5391C107.776 9.70052 108.719 9.28125 109.828 9.28125C110.339 9.28125 110.818 9.3776 111.266 9.57031C111.714 9.76302 112.128 10.0521 112.508 10.4375V9.5ZM110.266 11.25C109.604 11.25 109.055 11.4844 108.617 11.9531C108.18 12.4167 107.961 13.013 107.961 13.7422C107.961 14.4766 108.183 15.0807 108.625 15.5547C109.073 16.0286 109.623 16.2656 110.274 16.2656C110.946 16.2656 111.503 16.0339 111.946 15.5703C112.388 15.1016 112.61 14.4896 112.61 13.7344C112.61 12.9948 112.388 12.3958 111.946 11.9375C111.503 11.4792 110.943 11.25 110.266 11.25ZM119.406 9.5V10.4375C119.792 10.0521 120.209 9.76302 120.656 9.57031C121.104 9.3776 121.584 9.28125 122.094 9.28125C123.203 9.28125 124.146 9.70052 124.922 10.5391C125.698 11.3776 126.086 12.4531 126.086 13.7656C126.086 15.0312 125.685 16.0911 124.883 16.9453C124.081 17.7943 123.13 18.2188 122.031 18.2188C121.542 18.2188 121.086 18.1328 120.664 17.9609C120.242 17.7839 119.823 17.4974 119.406 17.1016V21.1094H117.289V9.5H119.406ZM121.649 11.25C120.977 11.25 120.42 11.4792 119.977 11.9375C119.534 12.3958 119.313 12.9948 119.313 13.7344C119.313 14.4896 119.534 15.1016 119.977 15.5703C120.42 16.0339 120.977 16.2656 121.649 16.2656C122.3 16.2656 122.847 16.0286 123.289 15.5547C123.737 15.0807 123.961 14.4766 123.961 13.7422C123.961 13.013 123.742 12.4167 123.305 11.9531C122.867 11.4844 122.315 11.25 121.649 11.25ZM127.594 9.5H135.516V11.5312H132.696V18H130.555V11.5312H127.594V9.5ZM139.547 12.5625H140.18C141.071 12.5625 141.753 12.6328 142.227 12.7734C142.706 12.9089 143.11 13.1953 143.438 13.6328C143.766 14.0703 143.93 14.6198 143.93 15.2812C143.93 15.9375 143.781 16.4844 143.485 16.9219C143.188 17.3542 142.808 17.6432 142.344 17.7891C141.886 17.9297 141.24 18 140.406 18H137.406V9.5H139.547V12.5625ZM139.547 16.3594H140.196C140.581 16.3594 140.86 16.3333 141.031 16.2812C141.203 16.224 141.354 16.1172 141.485 15.9609C141.615 15.8047 141.68 15.6146 141.68 15.3906C141.68 14.6615 141.263 14.2969 140.43 14.2969H139.547V16.3594ZM145.414 9.5H147.547V18H145.414V9.5Z" fill="black"/>
</svg>
